<svg width="800" height="800" viewBox="0 0 800 800" fill="none" xmlns="http://www.w3.org/2000/svg">
<g clip-path="url(#clip0_65743_2)">
<path fill-rule="evenodd" clip-rule="evenodd" d="M787.997 186C787.997 202.193 788.187 215.963 785.759 228.17C776.559 274.411 740.421 310.559 694.186 319.757C682.807 322.022 670.072 322.01 655.282 321.998C484.763 321.863 314.239 321.863 143.719 321.998C128.928 322.01 116.192 322.022 104.815 319.757C58.581 310.559 22.4396 274.411 13.2431 228.17C10.8153 215.963 11.0034 202.193 11.0034 186C11.0034 169.808 10.8153 156.037 13.2431 143.83C22.4396 97.5889 58.581 61.4413 104.815 52.2433C116.192 49.9799 128.928 49.99 143.719 50.0016C314.239 50.1376 484.763 50.1376 655.282 50.0016C670.072 49.99 682.807 49.9799 694.186 52.2433C740.421 61.4413 776.559 97.5889 785.759 143.83C788.187 156.037 787.997 169.808 787.997 186Z" fill="#B4B4B4"/>
<path fill-rule="evenodd" clip-rule="evenodd" d="M50.0001 557.988V340.012C64.4734 348.374 80.4361 354.48 97.4185 357.862C112.651 360.893 128.795 360.874 142.193 360.858L143.979 360.854C314.651 360.718 485.326 360.718 655.998 360.854L657.783 360.858C671.18 360.874 687.326 360.893 702.559 357.862C719.55 354.48 735.521 348.371 750 340V557.988C750.004 592.485 750.004 622.208 746.807 646.012C743.377 671.521 735.65 695.975 715.828 715.806C696.01 735.64 671.573 743.373 646.081 746.805C622.293 750.004 592.589 750.004 558.114 750H241.884C207.41 750.004 177.706 750.004 153.919 746.805C128.427 743.373 103.991 735.64 84.171 715.806C64.3509 695.975 56.6221 671.521 53.1948 646.012C49.9966 622.208 49.9982 592.485 50.0001 557.988ZM283.333 399.773C261.856 399.773 244.444 417.195 244.444 438.687C244.444 460.18 261.856 477.602 283.333 477.602H516.667C538.145 477.602 555.555 460.18 555.555 438.687C555.555 417.195 538.145 399.773 516.667 399.773H283.333Z" fill="#B4B4B4"/>
</g>
<defs>
<clipPath id="clip0_65743_2">
<rect width="800" height="800" fill="white"/>
</clipPath>
</defs>
</svg>
