<svg width="800" height="800" viewBox="0 0 800 800" fill="none" xmlns="http://www.w3.org/2000/svg">
<path d="M300 733.333H500C666.667 733.333 733.333 666.667 733.333 500V300C733.333 133.333 666.667 66.6666 500 66.6666H300C133.333 66.6666 66.6666 133.333 66.6666 300V500C66.6666 666.667 133.333 733.333 300 733.333Z" stroke="#33363F" stroke-width="50" stroke-linecap="round" stroke-linejoin="round"/>
<path d="M600 258.333V483.333C600 446.667 570 416.667 533.333 416.667H266.667C230 416.667 200 446.667 200 483.333V258.333C200 221.667 230 191.667 266.667 191.667H533.333C570 191.667 600 221.667 600 258.333Z" stroke="#33363F" stroke-width="50" stroke-linecap="round" stroke-linejoin="round"/>
<path d="M633.333 525H600" stroke="#33363F" stroke-width="50" stroke-linecap="round" stroke-linejoin="round"/>
<path d="M200 525H166.667" stroke="#33363F" stroke-width="50" stroke-linecap="round" stroke-linejoin="round"/>
<path d="M600 466.667V366.667C600 330 570 300 533.333 300H266.667C230 300 200 330 200 366.667V466.667" stroke="#33363F" stroke-width="50" stroke-linecap="round" stroke-linejoin="round"/>
<path d="M600 483.333V525H483.333C483.333 571 446 608.333 400 608.333C354 608.333 316.667 571 316.667 525H200V483.333C200 446.667 230 416.667 266.667 416.667H533.333C570 416.667 600 446.667 600 483.333Z" stroke="#33363F" stroke-width="50" stroke-linecap="round" stroke-linejoin="round"/>
</svg>
