<svg viewBox="0 0 800 800" fill="none" xmlns="http://www.w3.org/2000/svg">
<path fill-rule="evenodd" clip-rule="evenodd" d="M733.33 216.666C733.33 230.556 733.493 242.37 731.41 252.841C723.517 292.51 692.51 323.52 652.84 331.411C643.077 333.353 632.15 333.343 619.46 333.333C473.153 333.218 326.842 333.218 180.534 333.333C167.844 333.343 156.916 333.353 147.155 331.411C107.486 323.52 76.476 292.51 68.5853 252.841C66.5023 242.37 66.6637 230.556 66.6637 216.665C66.6637 202.775 66.5023 190.961 68.5853 180.49C76.476 140.821 107.486 109.811 147.155 101.92C156.916 99.9787 167.844 99.9874 180.534 99.9974C326.842 100.114 473.153 100.114 619.46 99.9974C632.15 99.9874 643.077 99.9787 652.84 101.92C692.51 109.811 723.517 140.821 731.41 180.49C733.493 190.961 733.33 202.775 733.33 216.666Z" fill="#D9D9D9"/>
<path fill-rule="evenodd" clip-rule="evenodd" d="M100 535.523V348.81C112.406 355.973 126.088 361.203 140.644 364.1C153.701 366.697 167.538 366.68 179.022 366.667L180.554 366.663C326.844 366.547 473.137 366.547 619.427 366.663L620.957 366.667C632.44 366.68 646.28 366.697 659.337 364.1C673.9 361.203 687.59 355.97 700 348.8V535.523C700.003 565.073 700.003 590.533 697.263 610.923C694.323 632.773 687.7 653.72 670.71 670.707C653.723 687.697 632.777 694.32 610.927 697.26C590.537 700 565.077 700 535.527 699.997H264.472C234.923 700 209.462 700 189.074 697.26C167.223 694.32 146.278 687.697 129.289 670.707C112.301 653.72 105.676 632.773 102.738 610.923C99.997 590.533 99.9983 565.073 100 535.523ZM300 400C281.591 400 266.667 414.923 266.667 433.333C266.667 451.743 281.591 466.667 300 466.667H500C518.41 466.667 533.333 451.743 533.333 433.333C533.333 414.923 518.41 400 500 400H300Z" fill="#D9D9D9"/>
</svg>
