<svg width="256" height="256" viewBox="0 0 256 256" fill="none" xmlns="http://www.w3.org/2000/svg">
<path d="M26.6966 254.307C20.2252 254.307 13.7537 251.837 8.81375 246.899C-1.0634 237.022 -1.0634 221.008 8.81375 211.131L211.134 8.81094C221.014 -1.06621 237.022 -1.06621 246.902 8.81094C256.779 18.6881 256.779 34.6995 246.902 44.5766L44.5822 246.897C39.6394 251.837 33.168 254.307 26.6966 254.307Z" fill="#595959"/>
<path d="M229.017 254.307C222.542 254.307 216.074 251.837 211.134 246.9L8.81375 44.5795C-1.0634 34.7024 -1.0634 18.691 8.81375 8.81387C18.6909 -1.06328 34.7023 -1.06328 44.5794 8.81387L246.899 211.134C256.777 221.011 256.777 237.025 246.899 246.902C241.959 251.837 235.491 254.307 229.017 254.307Z" fill="#595959"/>
</svg>
