<svg width="256" height="256" viewBox="0 0 256 256" fill="none" xmlns="http://www.w3.org/2000/svg">
<path d="M220.733 42.2584H34.9804C31.8781 42.2584 29.3604 39.7407 29.3604 36.6384C29.3604 33.5362 31.8781 31.0184 34.9804 31.0184H220.733C223.835 31.0184 226.353 33.5362 226.353 36.6384C226.353 39.7407 223.835 42.2584 220.733 42.2584Z" fill="#B4B4B4"/>
<path d="M163.574 42.2584H92.1386C89.0363 42.2584 86.5186 39.7406 86.5186 36.6384V22.0882C86.5186 10.6824 95.7972 1.40662 107.2 1.40662H148.516C159.919 1.40662 169.194 10.6852 169.194 22.0882V36.6384C169.194 39.7434 166.677 42.2584 163.574 42.2584ZM97.7586 31.0184H157.954V22.0882C157.954 16.8813 153.72 12.6466 148.516 12.6466H107.2C101.993 12.6466 97.7586 16.8813 97.7586 22.0882V31.0184Z" fill="#B4B4B4"/>
<path d="M208.703 55.8925C207.641 54.7657 206.163 54.1278 204.614 54.1278H51.1013C49.553 54.1278 48.0749 54.7657 47.0128 55.8925C45.9506 57.0165 45.3998 58.5311 45.4897 60.0766L55.7097 234.631C56.356 245.663 65.5194 254.307 76.574 254.307H179.136C190.191 254.307 199.354 245.663 200.006 234.628L210.226 60.0738C210.313 58.5311 209.762 57.0165 208.703 55.8925ZM93.5098 215.245C93.3974 215.253 93.2878 215.256 93.1754 215.256C90.2221 215.256 87.7437 212.952 87.5695 209.965L81.1346 100.054C80.9547 96.955 83.318 94.2968 86.4174 94.1169C89.4747 93.9427 92.1751 96.3003 92.3549 99.3997L98.7898 209.307C98.9725 212.404 96.6093 215.062 93.5098 215.245ZM133.476 209.636C133.476 212.738 130.959 215.256 127.856 215.256C124.754 215.256 122.236 212.738 122.236 209.636V99.7257C122.236 96.6234 124.754 94.1057 127.856 94.1057C130.959 94.1057 133.476 96.6234 133.476 99.7257V209.636ZM168.141 209.965C167.966 212.952 165.491 215.256 162.537 215.256C162.428 215.256 162.315 215.253 162.203 215.245C159.104 215.065 156.74 212.404 156.923 209.307L163.358 99.3997C163.535 96.3003 166.148 93.9146 169.296 94.1169C172.395 94.2968 174.758 96.9578 174.578 100.054L168.141 209.965Z" fill="#B4B4B4"/>
</svg>
