<svg width="25" height="27" viewBox="0 0 25 27" fill="none" xmlns="http://www.w3.org/2000/svg">
<path opacity="0.808" fill-rule="evenodd" clip-rule="evenodd" d="M21.8478 2.53491C22.097 2.53491 22.3464 2.53491 22.5956 2.53491C23.1565 3.22041 23.7796 3.8436 24.4651 4.40446C24.4651 4.65373 24.4651 4.90301 24.4651 5.15228C22.4774 7.04636 20.5144 8.97822 18.5761 10.9479C18.8687 12.3014 18.6195 13.5477 17.8282 14.687C13.8956 18.5884 10.0008 22.5144 6.14356 26.4651C5.89429 26.4651 5.64501 26.4651 5.39574 26.4651C3.83779 24.7826 2.21751 23.1622 0.534912 21.6043C0.534912 21.3551 0.534912 21.1058 0.534912 20.8565C4.48564 16.9993 8.4117 13.1044 12.3131 9.17181C13.4523 8.3806 14.6987 8.13133 16.0522 8.42399C18.0218 6.48559 19.9537 4.52256 21.8478 2.53491ZM22.0347 3.8436C22.515 4.01104 22.8889 4.32263 23.1565 4.77837C22.4739 5.55453 21.7573 6.30235 21.0065 7.02183C20.6638 6.67909 20.3209 6.33632 19.9782 5.99358C20.7017 5.30142 21.3873 4.58474 22.0347 3.8436ZM19.0435 6.83488C19.5237 7.00231 19.8976 7.31391 20.1652 7.76965C19.2956 8.73282 18.3919 9.6676 17.4543 10.574C17.5278 11.44 17.5278 12.3125 17.4543 13.1913C17.2674 13.5029 17.0804 13.8145 16.8935 14.1261C13.2478 17.7717 9.60223 21.4174 5.95661 25.063C5.83196 25.1877 5.70734 25.1877 5.5827 25.063C4.36749 23.8478 3.15228 22.6326 1.93707 21.4174C2.52011 20.4259 3.2991 19.5534 4.27401 18.8C5.36185 19.7943 6.42126 20.8225 7.45225 21.8847C7.70151 22.0094 7.9508 22.0094 8.20006 21.8847C10.3268 19.8205 12.3833 17.7017 14.3696 15.5283C13.3186 14.2899 12.1968 13.1059 11.0044 11.9761C11.8287 11.0263 12.7635 10.2162 13.8087 9.54572C14.6876 9.47221 15.56 9.47221 16.4261 9.54572C17.3365 8.66664 18.209 7.76303 19.0435 6.83488ZM10.0696 12.8174C11.143 13.6091 12.1401 14.5127 13.0609 15.5283C11.3445 17.2759 9.59957 18.9896 7.82616 20.6695C6.86298 19.7999 5.92821 18.8963 5.02183 17.9587C6.74225 16.2696 8.42484 14.5558 10.0696 12.8174Z" fill="#434343"/>
<rect width="1.14286" height="8" rx="0.571429" transform="matrix(-1 0 0 1 6.57141 0)" fill="#66595C"/>
<rect width="1.14286" height="8" rx="0.571429" transform="matrix(0 -1 -1 0 10 4.57153)" fill="#66595C"/>
</svg>
